<svg width="577.95" height="516.38" version="1.1" viewBox="0 0 152.92 136.63" xmlns="http://www.w3.org/2000/svg">
 <g transform="translate(34.797 -155.07)">
  <path transform="matrix(4.9932 0 0 4.4012 -327.15 -719.77)" d="m88.547 202.66-15.427 22.119m15.201-22.274-15.202 22.274m14.975-22.427-14.976 22.427m14.747-22.577-14.748 22.577m14.518-22.725-14.518 22.725m14.287-22.871-14.288 22.871m14.055-23.014-14.055 23.015m13.821-23.155-13.822 23.156m13.586-23.294-13.587 23.294m13.35-23.431-13.35 23.431m13.112-23.564-13.112 23.565m12.873-23.696-12.873 23.696m12.632-23.825-12.633 23.825m12.39-23.952-12.391 23.952m12.147-24.076-12.148 24.076m11.903-24.198-11.903 24.198m11.657-24.317-11.658 24.317m11.411-24.434-11.411 24.434m11.163-24.548-11.163 24.548m10.914-24.66-10.914 24.66m10.663-24.769-10.664 24.769m10.412-24.876-10.413 24.876m10.16-24.98-10.16 24.98m9.9065-25.081-9.9068 25.082m9.6521-25.18-9.6524 25.181m9.3967-25.277-9.397 25.277m9.1403-25.37-9.1406 25.371m8.883-25.462-8.8833 25.462m8.6248-25.55-8.6251 25.551m8.3658-25.636-8.3661 25.637m8.1058-25.72-8.1061 25.72m7.845-25.8-7.8453 25.801m7.5835-25.879-7.5838 25.879m7.3211-25.954-7.3214 25.954m7.058-26.027-7.0583 26.027m6.7942-26.097-6.7945 26.097m6.5297-26.164-6.53 26.165m6.2645-26.229-6.2648 26.229m5.9987-26.291-5.9989 26.291m5.7322-26.35-5.7325 26.351m5.4652-26.407-5.4655 26.407m5.1976-26.461-5.1979 26.461m4.9295-26.512-4.9297 26.513m4.6608-26.561-4.6611 26.561m4.3917-26.607-4.392 26.607m4.1222-26.65-4.1224 26.65m3.8522-26.69-3.8524 26.691m3.5818-26.728-3.5821 26.728m3.3111-26.763-3.3113 26.763m3.04-26.795-3.0402 26.795m2.7686-26.824-2.7688 26.825m2.4969-26.851-2.4972 26.851m2.225-26.875-2.2252 26.875m1.9528-26.896-1.9531 26.896m1.6805-26.914-1.6807 26.915m1.4079-26.93-1.4081 26.93m1.1352-26.943-1.1355 26.943m0.86245-26.953-0.86267 26.953m0.58957-26.96-0.58979 26.961m0.31663-26.965-0.31684 26.965m0.04366-26.967-0.04386 26.967m-0.22932-26.966 0.22912 26.966m-0.50228-26.962 0.50208 26.962m-0.77518-26.956 0.77499 26.956m-1.048-26.946 1.0478 26.947m-1.3207-26.934 1.3205 26.935m-1.5933-26.92 1.5931 26.92m-1.8657-26.902 1.8655 26.903m-2.138-26.882 2.1378 26.882m-2.41-26.859 2.4098 26.859m-2.6817-26.833 2.6816 26.833m-2.9532-26.805 2.953 26.805m-3.2244-26.773 3.2242 26.774m-3.4953-26.739 3.4951 26.74m-3.7657-26.703 3.7656 26.703m-4.0359-26.663 4.0357 26.663m-4.3056-26.621 4.3054 26.621m-4.5748-26.576 4.5747 26.576m-4.8436-26.528 4.8435 26.529m-5.1119-26.478 5.1118 26.478m-5.3797-26.425 5.3795 26.425m-5.6469-26.369 5.6467 26.369m-5.9135-26.31 5.9134 26.311m-6.1795-26.249 6.1794 26.25m-6.4449-26.185 6.4448 26.186m-6.7097-26.119 6.7096 26.119m-6.9737-26.049 6.9736 26.05m-7.2371-25.978 7.237 25.978m-7.4996-25.903 7.4995 25.903m-7.7615-25.826 7.7614 25.826m-8.0225-25.746 8.0224 25.746m-8.2827-25.663 8.2826 25.664m-8.5421-25.578 8.542 25.579m-8.8005-25.49 8.8005 25.491m-9.0581-25.4 9.0581 25.4m-9.3148-25.307 9.3147 25.307m-9.5705-25.211 9.5704 25.212m-9.8252-25.113 9.8251 25.114m-10.079-25.012 10.079 25.013m-10.332-24.909 10.332 24.91m-10.583-24.803 10.583 24.804m-10.834-24.695 10.834 24.695m-11.083-24.584 11.083 24.584m-11.331-24.47 11.331 24.471m-11.579-24.355 11.579 24.355m-11.825-24.236 11.824 24.236m-12.069-24.115 12.069 24.116m-12.313-23.992 12.313 23.992m-12.555-23.866 12.555 23.866m-12.796-23.738 12.796 23.738m-13.036-23.607 13.036 23.607m-13.274-23.474 13.274 23.474m-13.511-23.338 13.511 23.338m-13.746-23.2 13.746 23.201m-13.98-23.06 13.98 23.06m-14.213-22.917 14.213 22.917m-14.444-22.772 14.444 22.772m-14.674-22.625 14.674 22.625m-14.902-22.475 14.903 22.475m-15.129-22.323 15.129 22.323" fill="none" stroke="#000" stroke-width=".056242"/>
  <circle cx="37.828" cy="272.47" r="2.7403" fill="#7c334f" stroke-width=".26458"/>
  <text x="46.426777" y="286.16971" fill="#000000" font-family="sans-serif" font-size="10.583px" letter-spacing="0px" stroke-width=".26458" word-spacing="0px" style="line-height:1.25" xml:space="preserve"><tspan x="46.426777" y="286.16971" font-family="'MS PGothic'" stroke-width=".26458">Player Entity</tspan></text>
  <g fill="#e9eced" stroke="#6c7671" stroke-width=".8">
   <rect x="45.352" y="193.95" width="22.451" height="22.451"/>
   <rect x="67.803" y="193.95" width="22.451" height="22.451"/>
   <rect x="45.352" y="171.5" width="22.451" height="22.451"/>
   <rect x=".45069" y="171.5" width="22.451" height="22.451"/>
   <rect x=".45069" y="193.95" width="22.451" height="22.451"/>
   <rect x=".45069" y="216.4" width="22.451" height="22.451"/>
  </g>
 </g>
</svg>
