<svg width="577.95" height="516.38" version="1.1" viewBox="0 0 152.92 136.63" xmlns="http://www.w3.org/2000/svg">
 <g transform="translate(34.797 -155.07)">
  <path transform="translate(1.5391 56.17)" d="m-22.702 166.39 92.604-94.116m-92.447 94.257 99.096-87.254m-98.949 87.406 105.08-79.946m-104.95 80.108 110.53-72.228m-110.4 72.399 115.41-64.141m-115.3 64.32 119.7-55.725m-119.6 55.912 123.38-47.024m-123.29 47.218 126.42-38.083m-126.35 38.282 128.82-28.946m-128.77 29.15 130.56-19.662m-130.52 19.869 131.63-10.277m-131.61 10.486 132.03-0.83864m-132.02 1.0495 131.75 8.6035m-131.76-8.3924 130.8 18.002m-130.82-17.791 129.18 27.308m-129.21-27.099 126.9 36.474m-126.95-36.268 123.97 45.453m-124.03-45.252 120.4 54.2m-120.48-54.004 116.21 62.67m-116.31-62.479 111.44 70.818m-111.54-70.635 106.09 78.605m-106.21-78.429 100.2 85.988m-100.33-85.822 93.792 92.932m-93.934-92.775 86.908 99.4m-87.06-99.254 79.579 105.36" fill="none" stroke="#000" stroke-width=".26458px"/>
  <ellipse cx="-24.209" cy="225.24" rx="3.8201" ry="3.9059" fill="#7c334f" stroke="#6c7671" stroke-width=".51391"/>
  <path d="m-20.138 224.36h126.57" fill="#37abc8" stroke="#3fa4e4" stroke-dasharray="9.99, 1.665" stroke-width="1.665"/>
  <g fill="#e9eced" stroke="#6c7671">
   <g stroke-width=".8">
    <rect x="-25.737" y="257.24" width="48.003" height="10.772"/>
    <rect x="22.266" y="248.93" width="25.513" height="19.088"/>
    <rect x="47.78" y="238.91" width="16.442" height="29.104"/>
    <rect x="89.735" y="219.26" width="16.442" height="48.759" ry="0"/>
    <rect x="64.222" y="248.93" width="25.513" height="19.088"/>
   </g>
   <rect transform="scale(1,-1)" x="22.266" y="-170.39" width="84.58" height="14.76" stroke-width=".70348"/>
   <rect transform="scale(1,-1)" x="-27.584" y="-193.33" width="49.851" height="37.703" ry="0" stroke-width=".70348"/>
  </g>
 </g>
</svg>
