<?xml version="1.0" encoding="UTF-8" standalone="no"?>
<!-- Created with Inkscape (http://www.inkscape.org/) -->

<svg
   xmlns:dc="http://purl.org/dc/elements/1.1/"
   xmlns:cc="http://creativecommons.org/ns#"
   xmlns:rdf="http://www.w3.org/1999/02/22-rdf-syntax-ns#"
   xmlns:svg="http://www.w3.org/2000/svg"
   xmlns="http://www.w3.org/2000/svg"
   xmlns:sodipodi="http://sodipodi.sourceforge.net/DTD/sodipodi-0.dtd"
   xmlns:inkscape="http://www.inkscape.org/namespaces/inkscape"
   width="577.95319"
   height="516.38397"
   viewBox="0 0 152.91678 136.6266"
   version="1.1"
   id="svg8"
   inkscape:version="0.92.5 (2060ec1f9f, 2020-04-08)">
  <defs
     id="defs2">
    <inkscape:path-effect
       effect="copy_rotate"
       starting_point="71.553635,215.98037"
       origin="73.138392,224.81631"
       id="path-effect821"
       is_visible="true"
       copies_to_360="false"
       fuse_paths="false"
       starting_angle="100.16809"
       rotation_angle="0.58"
       num_copies="120" />
  </defs>
  <sodipodi:namedview
     id="base"
     pagecolor="#ffffff"
     bordercolor="#666666"
     borderopacity="1.0"
     inkscape:pageopacity="0.0"
     inkscape:pageshadow="2"
     inkscape:zoom="0.7"
     inkscape:cx="406.37179"
     inkscape:cy="270.45043"
     inkscape:document-units="mm"
     inkscape:current-layer="layer1"
     showgrid="false"
     units="px"
     inkscape:window-width="1920"
     inkscape:window-height="1057"
     inkscape:window-x="1912"
     inkscape:window-y="-8"
     inkscape:window-maximized="1" />
  <metadata
     id="metadata5">
    <rdf:RDF>
      <cc:Work
         rdf:about="">
        <dc:format>image/svg+xml</dc:format>
        <dc:type
           rdf:resource="http://purl.org/dc/dcmitype/StillImage" />
        <dc:title></dc:title>
      </cc:Work>
    </rdf:RDF>
  </metadata>
  <g
     inkscape:label="Layer 1"
     inkscape:groupmode="layer"
     id="layer1"
     transform="translate(34.797022,-155.06512)">
    <path
       style="fill:none;stroke:#000000;stroke-width:0.05624247;stroke-linecap:butt;stroke-linejoin:miter;stroke-miterlimit:4;stroke-dasharray:none;stroke-opacity:1"
       d="M 88.547079,202.66034 73.120572,224.77932 M 88.322011,202.50549 73.120198,224.7795 m 14.975188,-22.42656 -14.975559,22.42675 m 14.747402,-22.57701 -14.747772,22.5772 M 87.637563,202.05474 73.119089,224.78007 M 87.40641,201.90914 73.118723,224.78027 m 14.055073,-23.01439 -14.055437,23.01459 m 13.821384,-23.15548 -13.821745,23.15568 m 13.586279,-23.2942 -13.586639,23.29441 M 86.46742,201.35034 73.11728,224.78109 m 13.111917,-23.56448 -13.112272,23.5647 m 12.872708,-23.696 -12.873061,23.69622 m 12.63218,-23.82509 -12.632531,23.82531 M 85.506578,200.83001 73.115872,224.78198 M 85.263138,200.70604 73.115526,224.78221 M 85.018454,200.58453 73.115182,224.78244 M 84.772554,200.46552 73.11484,224.78268 M 84.525461,200.349 73.114501,224.78292 m 11.1627,-24.54794 -11.163037,24.54818 M 84.0278,200.12349 73.11383,224.78341 M 83.777283,200.01452 73.113498,224.78366 M 83.525676,199.9081 73.113168,224.78391 m 10.159837,-24.97969 -10.160163,24.97995 m 9.906453,-25.08125 -9.906777,25.08151 m 9.652054,-25.18025 -9.652376,25.18051 m 9.396667,-25.27666 -9.396985,25.27693 m 9.140316,-25.37049 -9.140632,25.37076 m 8.883029,-25.46171 -8.883343,25.46198 m 8.624833,-25.55033 -8.625143,25.55061 m 8.365751,-25.63633 -8.366059,25.63661 m 8.105813,-25.7197 -8.106118,25.71998 m 7.845044,-25.80043 -7.845345,25.80072 m 7.58347,-25.87853 -7.58377,25.87881 m 7.321121,-25.95396 -7.321417,25.95426 m 7.058021,-26.02675 -7.058314,26.02704 m 6.794197,-26.09686 -6.794487,26.09716 m 6.529677,-26.1643 -6.529964,26.1646 m 6.264488,-26.22905 -6.264772,26.22935 m 5.998657,-26.29112 -5.998938,26.29143 m 5.732212,-26.3505 -5.73249,26.35081 m 5.465179,-26.40718 -5.465453,26.40749 m 5.197586,-26.46114 -5.197858,26.46146 m 4.929461,-26.51241 -4.929729,26.51272 m 4.66083,-26.56094 -4.661095,26.56126 m 4.391721,-26.60676 -4.391983,26.60709 m 4.122163,-26.64986 -4.122422,26.65018 m 3.852183,-26.69022 -3.852438,26.69055 m 3.581807,-26.72785 -3.582059,26.72818 m 3.311065,-26.76273 -3.311314,26.76306 m 3.039984,-26.79488 -3.040229,26.79522 m 2.76859,-26.82428 -2.768831,26.82462 m 2.496913,-26.85093 -2.497152,26.85127 m 2.22498,-26.87483 -2.225215,26.87517 m 1.95282,-26.89598 -1.953051,26.89632 m 1.680458,-26.91436 -1.680686,26.91471 m 1.407925,-26.93 -1.408149,26.93035 m 1.135248,-26.94287 -1.135469,26.94322 m 0.862454,-26.95298 -0.862671,26.95334 m 0.589572,-26.96033 -0.589786,26.96069 m 0.31663,-26.96492 -0.31684,26.96527 m 0.04366,-26.96674 -0.04386,26.96711 m -0.229325,-26.96581 0.229122,26.96617 m -0.502281,-26.9621 0.502082,26.96246 m -0.775185,-26.95563 0.77499,26.956 m -1.048011,-26.9464 1.047819,26.94677 m -1.320728,-26.93442 1.32054,26.93479 m -1.59331,-26.91967 1.593126,26.92004 m -1.865729,-26.90216 1.865549,26.90254 m -2.137957,-26.8819 2.13778,26.88227 m -2.409966,-26.85887 2.409794,26.85925 m -2.681728,-26.8331 2.681559,26.83348 m -2.953215,-26.80458 2.95305,26.80496 m -3.2244,-26.77331 3.224239,26.7737 m -3.495254,-26.73931 3.495096,26.73969 m -3.765749,-26.70255 3.765596,26.70294 m -4.035859,-26.66307 4.03571,26.66345 m -4.305556,-26.62084 4.30541,26.62123 m -4.57481,-26.57589 4.574669,26.57628 m -4.843597,-26.52822 4.843459,26.52862 m -5.111887,-26.47784 5.111754,26.47823 m -5.379654,-26.42473 5.379524,26.42513 m -5.646868,-26.36892 5.646742,26.36931 m -5.913504,-26.31041 5.913383,26.31081 m -6.179535,-26.2492 6.179417,26.2496 m -6.444932,-26.1853 6.444819,26.1857 m -6.709669,-26.11872 6.709559,26.11912 m -6.973718,-26.04946 6.973613,26.04986 m -7.237052,-25.97753 7.236951,25.97793 m -7.499646,-25.90294 7.499548,25.90335 m -7.761469,-25.8257 7.761376,25.8261 m -8.022498,-25.7458 8.022409,25.74621 m -8.282705,-25.66328 8.28262,25.66369 m -8.542064,-25.57812 8.541984,25.57852 m -8.800547,-25.49034 8.80047,25.49075 m -9.058128,-25.39995 9.058055,25.40036 m -9.31478,-25.30695 9.314712,25.30736 M 63.527385,199.5984 73.0978,224.81017 m -9.825197,-25.11319 9.825137,25.1136 m -10.078908,-25.01245 10.078852,25.01286 m -10.331586,-24.90914 10.331534,24.90956 m -10.583205,-24.80329 10.583158,24.8037 m -10.83374,-24.69488 10.833696,24.69529 m -11.083164,-24.58394 11.083125,24.58436 m -11.331454,-24.4705 11.331419,24.47091 M 61.51888,200.45852 73.09743,224.81348 m -11.824523,-24.23609 11.824497,24.2365 m -12.069253,-24.11514 12.06923,24.11556 m -12.312745,-23.99174 12.312727,23.99215 m -12.554976,-23.86587 12.554962,23.86629 m -12.795921,-23.73756 12.795911,23.73797 m -13.035554,-23.60681 13.035549,23.60723 m -13.273852,-23.47364 13.27385,23.47405 M 59.586543,201.47831 73.097335,224.8168 M 59.350993,201.61669 73.097342,224.81721 M 59.116856,201.75744 73.097354,224.81763 M 58.884155,201.90056 73.097369,224.81805 M 58.652915,202.04603 73.097389,224.81846 M 58.42316,202.19383 73.097413,224.81888 m -14.9025,-22.47494 14.902528,22.47535 M 57.968196,202.49636 73.097473,224.8197"
       id="path819"
       inkscape:connector-curvature="0"
       inkscape:path-effect="#path-effect821"
       inkscape:original-d="M 92.226188,243.89433 73.177948,224.8053"
       sodipodi:nodetypes="cc"
       transform="matrix(4.9931642,0,0,4.4011697,-327.14932,-719.77143)" />
    <circle
       id="path10"
       cx="37.827824"
       cy="272.46808"
       r="2.7403271"
       style="fill:#7c334f;fill-opacity:1;stroke-width:0.26458332" />
    <text
       xml:space="preserve"
       style="font-style:normal;font-weight:normal;font-size:10.58333302px;line-height:1.25;font-family:sans-serif;letter-spacing:0px;word-spacing:0px;fill:#000000;fill-opacity:1;stroke:none;stroke-width:0.26458332"
       x="46.426777"
       y="286.16971"
       id="text825"><tspan
         sodipodi:role="line"
         id="tspan823"
         x="46.426777"
         y="286.16971"
         style="font-style:normal;font-variant:normal;font-weight:normal;font-stretch:normal;font-family:'MS PGothic';-inkscape-font-specification:'MS PGothic';stroke-width:0.26458332">Player Entity</tspan></text>
    <rect
       style="fill:#e9eced;fill-opacity:1;stroke:#6c7671;stroke-width:0.80000001;stroke-miterlimit:4;stroke-dasharray:none;stroke-opacity:1"
       id="rect829"
       width="22.45064"
       height="22.45064"
       x="45.351971"
       y="193.95251" />
    <rect
       style="fill:#e9eced;fill-opacity:1;stroke:#6c7671;stroke-width:0.80000001;stroke-miterlimit:4;stroke-dasharray:none;stroke-opacity:1"
       id="rect829-2"
       width="22.45064"
       height="22.45064"
       x="67.802612"
       y="193.95251" />
    <rect
       style="fill:#e9eced;fill-opacity:1;stroke:#6c7671;stroke-width:0.80000001;stroke-miterlimit:4;stroke-dasharray:none;stroke-opacity:1"
       id="rect829-0"
       width="22.45064"
       height="22.45064"
       x="45.351978"
       y="171.50188" />
    <rect
       style="fill:#e9eced;fill-opacity:1;stroke:#6c7671;stroke-width:0.80000001;stroke-miterlimit:4;stroke-dasharray:none;stroke-opacity:1"
       id="rect829-03"
       width="22.45064"
       height="22.45064"
       x="0.45068851"
       y="171.50188" />
    <rect
       style="fill:#e9eced;fill-opacity:1;stroke:#6c7671;stroke-width:0.80000001;stroke-miterlimit:4;stroke-dasharray:none;stroke-opacity:1"
       id="rect829-03-6"
       width="22.45064"
       height="22.45064"
       x="0.45068851"
       y="193.95251" />
    <rect
       style="fill:#e9eced;fill-opacity:1;stroke:#6c7671;stroke-width:0.80000001;stroke-miterlimit:4;stroke-dasharray:none;stroke-opacity:1"
       id="rect829-03-6-8"
       width="22.45064"
       height="22.45064"
       x="0.45069018"
       y="216.40315" />
  </g>
</svg>
