<?xml version="1.0" encoding="UTF-8" standalone="no"?>
<!-- Created with Inkscape (http://www.inkscape.org/) -->

<svg
   xmlns:dc="http://purl.org/dc/elements/1.1/"
   xmlns:cc="http://creativecommons.org/ns#"
   xmlns:rdf="http://www.w3.org/1999/02/22-rdf-syntax-ns#"
   xmlns:svg="http://www.w3.org/2000/svg"
   xmlns="http://www.w3.org/2000/svg"
   xmlns:sodipodi="http://sodipodi.sourceforge.net/DTD/sodipodi-0.dtd"
   xmlns:inkscape="http://www.inkscape.org/namespaces/inkscape"
   width="577.95319"
   height="516.38397"
   viewBox="0 0 152.91678 136.6266"
   version="1.1"
   id="svg8"
   inkscape:version="0.92.5 (2060ec1f9f, 2020-04-08)"
   sodipodi:docname="3-floors-walls.svg">
  <defs
     id="defs2">
    <inkscape:path-effect
       effect="copy_rotate"
       starting_point="0.1657755,168.66046"
       origin="-24.591665,168.66046"
       id="path-effect19459"
       is_visible="true"
       copies_to_360="false"
       fuse_paths="false"
       starting_angle="0"
       rotation_angle="-4.1"
       num_copies="25" />
    <marker
       inkscape:isstock="true"
       style="overflow:visible;"
       id="marker11924"
       refX="0.0"
       refY="0.0"
       orient="auto"
       inkscape:stockid="Arrow1Lend">
      <path
         transform="scale(0.8) rotate(180) translate(12.5,0)"
         style="fill-rule:evenodd;stroke:#000000;stroke-width:1pt;stroke-opacity:1;fill:#000000;fill-opacity:1"
         d="M 0.0,0.0 L 5.0,-5.0 L -12.5,0.0 L 5.0,5.0 L 0.0,0.0 z "
         id="path11922" />
    </marker>
    <marker
       inkscape:isstock="true"
       style="overflow:visible;"
       id="marker11476"
       refX="0.0"
       refY="0.0"
       orient="auto"
       inkscape:stockid="Arrow1Lend">
      <path
         transform="scale(0.8) rotate(180) translate(12.5,0)"
         style="fill-rule:evenodd;stroke:#000000;stroke-width:1pt;stroke-opacity:1;fill:#000000;fill-opacity:1"
         d="M 0.0,0.0 L 5.0,-5.0 L -12.5,0.0 L 5.0,5.0 L 0.0,0.0 z "
         id="path11474" />
    </marker>
    <marker
       inkscape:stockid="Arrow1Lstart"
       orient="auto"
       refY="0.0"
       refX="0.0"
       id="marker1274"
       style="overflow:visible"
       inkscape:isstock="true">
      <path
         id="path1272"
         d="M 0.0,0.0 L 5.0,-5.0 L -12.5,0.0 L 5.0,5.0 L 0.0,0.0 z "
         style="fill-rule:evenodd;stroke:#000000;stroke-width:1pt;stroke-opacity:1;fill:#000000;fill-opacity:1"
         transform="scale(0.8) translate(12.5,0)" />
    </marker>
    <marker
       inkscape:stockid="Arrow1Lstart"
       orient="auto"
       refY="0.0"
       refX="0.0"
       id="Arrow1Lstart"
       style="overflow:visible"
       inkscape:isstock="true">
      <path
         id="path990"
         d="M 0.0,0.0 L 5.0,-5.0 L -12.5,0.0 L 5.0,5.0 L 0.0,0.0 z "
         style="fill-rule:evenodd;stroke:#29292a;stroke-width:1pt;stroke-opacity:1;fill:#29292a;fill-opacity:1"
         transform="scale(0.8) translate(12.5,0)" />
    </marker>
    <inkscape:path-effect
       effect="copy_rotate"
       starting_point="71.553635,215.98037"
       origin="73.138392,224.81631"
       id="path-effect821"
       is_visible="true"
       copies_to_360="false"
       fuse_paths="false"
       starting_angle="100.16809"
       rotation_angle="0.58"
       num_copies="120" />
    <marker
       inkscape:stockid="Arrow1Lstart"
       orient="auto"
       refY="0"
       refX="0"
       id="Arrow1Lstart-4"
       style="overflow:visible"
       inkscape:isstock="true">
      <path
         inkscape:connector-curvature="0"
         id="path990-1"
         d="M 0,0 5,-5 -12.5,0 5,5 Z"
         style="fill:#29292a;fill-opacity:1;fill-rule:evenodd;stroke:#29292a;stroke-width:1.00000003pt;stroke-opacity:1"
         transform="matrix(0.8,0,0,0.8,10,0)" />
    </marker>
    <marker
       inkscape:stockid="Arrow1Lend"
       orient="auto"
       refY="0"
       refX="0"
       id="Arrow1Lend-4"
       style="overflow:visible"
       inkscape:isstock="true">
      <path
         inkscape:connector-curvature="0"
         id="path993-8"
         d="M 0,0 5,-5 -12.5,0 5,5 Z"
         style="fill:#000000;fill-opacity:1;fill-rule:evenodd;stroke:#000000;stroke-width:1.00000003pt;stroke-opacity:1"
         transform="matrix(-0.8,0,0,-0.8,-10,0)" />
    </marker>
    <marker
       inkscape:stockid="Arrow1Lstart"
       orient="auto"
       refY="0"
       refX="0"
       id="Arrow1Lstart-8"
       style="overflow:visible"
       inkscape:isstock="true">
      <path
         inkscape:connector-curvature="0"
         id="path990-9"
         d="M 0,0 5,-5 -12.5,0 5,5 Z"
         style="fill:#29292a;fill-opacity:1;fill-rule:evenodd;stroke:#29292a;stroke-width:1.00000003pt;stroke-opacity:1"
         transform="matrix(0.8,0,0,0.8,10,0)" />
    </marker>
    <marker
       inkscape:stockid="Arrow1Lend"
       orient="auto"
       refY="0"
       refX="0"
       id="Arrow1Lend-2"
       style="overflow:visible"
       inkscape:isstock="true">
      <path
         inkscape:connector-curvature="0"
         id="path993-6"
         d="M 0,0 5,-5 -12.5,0 5,5 Z"
         style="fill:#29292a;fill-opacity:1;fill-rule:evenodd;stroke:#29292a;stroke-width:1.00000003pt;stroke-opacity:1"
         transform="matrix(-0.8,0,0,-0.8,-10,0)" />
    </marker>
    <marker
       inkscape:stockid="Arrow1Lstart"
       orient="auto"
       refY="0"
       refX="0"
       id="Arrow1Lstart-8-7"
       style="overflow:visible"
       inkscape:isstock="true">
      <path
         inkscape:connector-curvature="0"
         id="path990-9-3"
         d="M 0,0 5,-5 -12.5,0 5,5 Z"
         style="fill:#29292a;fill-opacity:1;fill-rule:evenodd;stroke:#29292a;stroke-width:1.00000003pt;stroke-opacity:1"
         transform="matrix(0.8,0,0,0.8,10,0)" />
    </marker>
    <marker
       inkscape:stockid="Arrow1Lend"
       orient="auto"
       refY="0"
       refX="0"
       id="Arrow1Lend-2-0"
       style="overflow:visible"
       inkscape:isstock="true">
      <path
         inkscape:connector-curvature="0"
         id="path993-6-9"
         d="M 0,0 5,-5 -12.5,0 5,5 Z"
         style="fill:#29292a;fill-opacity:1;fill-rule:evenodd;stroke:#29292a;stroke-width:1.00000003pt;stroke-opacity:1"
         transform="matrix(-0.8,0,0,-0.8,-10,0)" />
    </marker>
    <marker
       inkscape:stockid="Arrow1Lstart"
       orient="auto"
       refY="0"
       refX="0"
       id="Arrow1Lstart-8-7-9"
       style="overflow:visible"
       inkscape:isstock="true">
      <path
         inkscape:connector-curvature="0"
         id="path990-9-3-7"
         d="M 0,0 5,-5 -12.5,0 5,5 Z"
         style="fill:#29292a;fill-opacity:1;fill-rule:evenodd;stroke:#29292a;stroke-width:1.00000003pt;stroke-opacity:1"
         transform="matrix(0.8,0,0,0.8,10,0)" />
    </marker>
    <marker
       inkscape:stockid="Arrow1Lend"
       orient="auto"
       refY="0"
       refX="0"
       id="Arrow1Lend-2-0-5"
       style="overflow:visible"
       inkscape:isstock="true">
      <path
         inkscape:connector-curvature="0"
         id="path993-6-9-2"
         d="M 0,0 5,-5 -12.5,0 5,5 Z"
         style="fill:#29292a;fill-opacity:1;fill-rule:evenodd;stroke:#29292a;stroke-width:1.00000003pt;stroke-opacity:1"
         transform="matrix(-0.8,0,0,-0.8,-10,0)" />
    </marker>
    <marker
       inkscape:stockid="Arrow1Lstart"
       orient="auto"
       refY="0"
       refX="0"
       id="Arrow1Lstart-8-7-7"
       style="overflow:visible"
       inkscape:isstock="true">
      <path
         inkscape:connector-curvature="0"
         id="path990-9-3-6"
         d="M 0,0 5,-5 -12.5,0 5,5 Z"
         style="fill:#29292a;fill-opacity:1;fill-rule:evenodd;stroke:#29292a;stroke-width:1.00000003pt;stroke-opacity:1"
         transform="matrix(0.8,0,0,0.8,10,0)" />
    </marker>
    <marker
       inkscape:stockid="Arrow1Lend"
       orient="auto"
       refY="0"
       refX="0"
       id="Arrow1Lend-2-0-51"
       style="overflow:visible"
       inkscape:isstock="true">
      <path
         inkscape:connector-curvature="0"
         id="path993-6-9-9"
         d="M 0,0 5,-5 -12.5,0 5,5 Z"
         style="fill:#29292a;fill-opacity:1;fill-rule:evenodd;stroke:#29292a;stroke-width:1.00000003pt;stroke-opacity:1"
         transform="matrix(-0.8,0,0,-0.8,-10,0)" />
    </marker>
    <marker
       inkscape:stockid="Arrow1Lstart"
       orient="auto"
       refY="0"
       refX="0"
       id="Arrow1Lstart-8-7-7-4"
       style="overflow:visible"
       inkscape:isstock="true">
      <path
         inkscape:connector-curvature="0"
         id="path990-9-3-6-3"
         d="M 0,0 5,-5 -12.5,0 5,5 Z"
         style="fill:#29292a;fill-opacity:1;fill-rule:evenodd;stroke:#29292a;stroke-width:1.00000003pt;stroke-opacity:1"
         transform="matrix(0.8,0,0,0.8,10,0)" />
    </marker>
    <marker
       inkscape:stockid="Arrow1Lend"
       orient="auto"
       refY="0"
       refX="0"
       id="Arrow1Lend-2-0-51-1"
       style="overflow:visible"
       inkscape:isstock="true">
      <path
         inkscape:connector-curvature="0"
         id="path993-6-9-9-0"
         d="M 0,0 5,-5 -12.5,0 5,5 Z"
         style="fill:#29292a;fill-opacity:1;fill-rule:evenodd;stroke:#29292a;stroke-width:1.00000003pt;stroke-opacity:1"
         transform="matrix(-0.8,0,0,-0.8,-10,0)" />
    </marker>
    <marker
       inkscape:stockid="Arrow1Lstart"
       orient="auto"
       refY="0"
       refX="0"
       id="Arrow1Lstart-8-7-9-2"
       style="overflow:visible"
       inkscape:isstock="true">
      <path
         inkscape:connector-curvature="0"
         id="path990-9-3-7-6"
         d="M 0,0 5,-5 -12.5,0 5,5 Z"
         style="fill:#29292a;fill-opacity:1;fill-rule:evenodd;stroke:#29292a;stroke-width:1.00000003pt;stroke-opacity:1"
         transform="matrix(0.8,0,0,0.8,10,0)" />
    </marker>
    <marker
       inkscape:stockid="Arrow1Lend"
       orient="auto"
       refY="0"
       refX="0"
       id="Arrow1Lend-2-0-5-3"
       style="overflow:visible"
       inkscape:isstock="true">
      <path
         inkscape:connector-curvature="0"
         id="path993-6-9-2-2"
         d="M 0,0 5,-5 -12.5,0 5,5 Z"
         style="fill:#29292a;fill-opacity:1;fill-rule:evenodd;stroke:#29292a;stroke-width:1.00000003pt;stroke-opacity:1"
         transform="matrix(-0.8,0,0,-0.8,-10,0)" />
    </marker>
    <marker
       inkscape:stockid="Arrow1Lstart"
       orient="auto"
       refY="0"
       refX="0"
       id="Arrow1Lstart-8-2"
       style="overflow:visible"
       inkscape:isstock="true">
      <path
         inkscape:connector-curvature="0"
         id="path990-9-2"
         d="M 0,0 5,-5 -12.5,0 5,5 Z"
         style="fill:#29292a;fill-opacity:1;fill-rule:evenodd;stroke:#29292a;stroke-width:1.00000003pt;stroke-opacity:1"
         transform="matrix(0.8,0,0,0.8,10,0)" />
    </marker>
    <marker
       inkscape:stockid="Arrow1Lend"
       orient="auto"
       refY="0"
       refX="0"
       id="Arrow1Lend-2-4"
       style="overflow:visible"
       inkscape:isstock="true">
      <path
         inkscape:connector-curvature="0"
         id="path993-6-8"
         d="M 0,0 5,-5 -12.5,0 5,5 Z"
         style="fill:#29292a;fill-opacity:1;fill-rule:evenodd;stroke:#29292a;stroke-width:1.00000003pt;stroke-opacity:1"
         transform="matrix(-0.8,0,0,-0.8,-10,0)" />
    </marker>
    <marker
       inkscape:stockid="Arrow1Lstart"
       orient="auto"
       refY="0"
       refX="0"
       id="Arrow1Lstart-8-7-0"
       style="overflow:visible"
       inkscape:isstock="true">
      <path
         inkscape:connector-curvature="0"
         id="path990-9-3-60"
         d="M 0,0 5,-5 -12.5,0 5,5 Z"
         style="fill:#29292a;fill-opacity:1;fill-rule:evenodd;stroke:#29292a;stroke-width:1.00000003pt;stroke-opacity:1"
         transform="matrix(0.8,0,0,0.8,10,0)" />
    </marker>
    <marker
       inkscape:stockid="Arrow1Lend"
       orient="auto"
       refY="0"
       refX="0"
       id="Arrow1Lend-2-0-9"
       style="overflow:visible"
       inkscape:isstock="true">
      <path
         inkscape:connector-curvature="0"
         id="path993-6-9-8"
         d="M 0,0 5,-5 -12.5,0 5,5 Z"
         style="fill:#29292a;fill-opacity:1;fill-rule:evenodd;stroke:#29292a;stroke-width:1.00000003pt;stroke-opacity:1"
         transform="matrix(-0.8,0,0,-0.8,-10,0)" />
    </marker>
    <marker
       inkscape:stockid="Arrow1Lstart"
       orient="auto"
       refY="0"
       refX="0"
       id="Arrow1Lstart-8-7-9-5"
       style="overflow:visible"
       inkscape:isstock="true">
      <path
         inkscape:connector-curvature="0"
         id="path990-9-3-7-5"
         d="M 0,0 5,-5 -12.5,0 5,5 Z"
         style="fill:#29292a;fill-opacity:1;fill-rule:evenodd;stroke:#29292a;stroke-width:1.00000003pt;stroke-opacity:1"
         transform="matrix(0.8,0,0,0.8,10,0)" />
    </marker>
    <marker
       inkscape:stockid="Arrow1Lend"
       orient="auto"
       refY="0"
       refX="0"
       id="Arrow1Lend-2-0-5-2"
       style="overflow:visible"
       inkscape:isstock="true">
      <path
         inkscape:connector-curvature="0"
         id="path993-6-9-2-5"
         d="M 0,0 5,-5 -12.5,0 5,5 Z"
         style="fill:#29292a;fill-opacity:1;fill-rule:evenodd;stroke:#29292a;stroke-width:1.00000003pt;stroke-opacity:1"
         transform="matrix(-0.8,0,0,-0.8,-10,0)" />
    </marker>
    <marker
       inkscape:stockid="Arrow1Lstart"
       orient="auto"
       refY="0"
       refX="0"
       id="Arrow1Lstart-8-7-7-5"
       style="overflow:visible"
       inkscape:isstock="true">
      <path
         inkscape:connector-curvature="0"
         id="path990-9-3-6-31"
         d="M 0,0 5,-5 -12.5,0 5,5 Z"
         style="fill:#29292a;fill-opacity:1;fill-rule:evenodd;stroke:#29292a;stroke-width:1.00000003pt;stroke-opacity:1"
         transform="matrix(0.8,0,0,0.8,10,0)" />
    </marker>
    <marker
       inkscape:stockid="Arrow1Lend"
       orient="auto"
       refY="0"
       refX="0"
       id="Arrow1Lend-2-0-51-5"
       style="overflow:visible"
       inkscape:isstock="true">
      <path
         inkscape:connector-curvature="0"
         id="path993-6-9-9-7"
         d="M 0,0 5,-5 -12.5,0 5,5 Z"
         style="fill:#29292a;fill-opacity:1;fill-rule:evenodd;stroke:#29292a;stroke-width:1.00000003pt;stroke-opacity:1"
         transform="matrix(-0.8,0,0,-0.8,-10,0)" />
    </marker>
    <marker
       inkscape:stockid="Arrow1Lstart"
       orient="auto"
       refY="0"
       refX="0"
       id="Arrow1Lstart-8-7-7-4-1"
       style="overflow:visible"
       inkscape:isstock="true">
      <path
         inkscape:connector-curvature="0"
         id="path990-9-3-6-3-4"
         d="M 0,0 5,-5 -12.5,0 5,5 Z"
         style="fill:#29292a;fill-opacity:1;fill-rule:evenodd;stroke:#29292a;stroke-width:1.00000003pt;stroke-opacity:1"
         transform="matrix(0.8,0,0,0.8,10,0)" />
    </marker>
    <marker
       inkscape:stockid="Arrow1Lend"
       orient="auto"
       refY="0"
       refX="0"
       id="Arrow1Lend-2-0-51-1-2"
       style="overflow:visible"
       inkscape:isstock="true">
      <path
         inkscape:connector-curvature="0"
         id="path993-6-9-9-0-2"
         d="M 0,0 5,-5 -12.5,0 5,5 Z"
         style="fill:#29292a;fill-opacity:1;fill-rule:evenodd;stroke:#29292a;stroke-width:1.00000003pt;stroke-opacity:1"
         transform="matrix(-0.8,0,0,-0.8,-10,0)" />
    </marker>
    <marker
       inkscape:stockid="Arrow1Lstart"
       orient="auto"
       refY="0"
       refX="0"
       id="Arrow1Lstart-8-7-7-4-6"
       style="overflow:visible"
       inkscape:isstock="true">
      <path
         inkscape:connector-curvature="0"
         id="path990-9-3-6-3-0"
         d="M 0,0 5,-5 -12.5,0 5,5 Z"
         style="fill:#29292a;fill-opacity:1;fill-rule:evenodd;stroke:#29292a;stroke-width:1.00000003pt;stroke-opacity:1"
         transform="matrix(0.8,0,0,0.8,10,0)" />
    </marker>
    <marker
       inkscape:stockid="Arrow1Lend"
       orient="auto"
       refY="0"
       refX="0"
       id="Arrow1Lend-2-0-51-1-4"
       style="overflow:visible"
       inkscape:isstock="true">
      <path
         inkscape:connector-curvature="0"
         id="path993-6-9-9-0-8"
         d="M 0,0 5,-5 -12.5,0 5,5 Z"
         style="fill:#29292a;fill-opacity:1;fill-rule:evenodd;stroke:#29292a;stroke-width:1.00000003pt;stroke-opacity:1"
         transform="matrix(-0.8,0,0,-0.8,-10,0)" />
    </marker>
    <marker
       inkscape:stockid="Arrow1Lstart"
       orient="auto"
       refY="0"
       refX="0"
       id="Arrow1Lstart-8-7-7-4-6-2"
       style="overflow:visible"
       inkscape:isstock="true">
      <path
         inkscape:connector-curvature="0"
         id="path990-9-3-6-3-0-7"
         d="M 0,0 5,-5 -12.5,0 5,5 Z"
         style="fill:#29292a;fill-opacity:1;fill-rule:evenodd;stroke:#29292a;stroke-width:1.00000003pt;stroke-opacity:1"
         transform="matrix(0.8,0,0,0.8,10,0)" />
    </marker>
    <marker
       inkscape:stockid="Arrow1Lend"
       orient="auto"
       refY="0"
       refX="0"
       id="Arrow1Lend-2-0-51-1-4-0"
       style="overflow:visible"
       inkscape:isstock="true">
      <path
         inkscape:connector-curvature="0"
         id="path993-6-9-9-0-8-0"
         d="M 0,0 5,-5 -12.5,0 5,5 Z"
         style="fill:#29292a;fill-opacity:1;fill-rule:evenodd;stroke:#29292a;stroke-width:1.00000003pt;stroke-opacity:1"
         transform="matrix(-0.8,0,0,-0.8,-10,0)" />
    </marker>
    <marker
       inkscape:stockid="Arrow1Lstart"
       orient="auto"
       refY="0"
       refX="0"
       id="Arrow1Lstart-8-7-7-4-6-2-4"
       style="overflow:visible"
       inkscape:isstock="true">
      <path
         inkscape:connector-curvature="0"
         id="path990-9-3-6-3-0-7-0"
         d="M 0,0 5,-5 -12.5,0 5,5 Z"
         style="fill:#29292a;fill-opacity:1;fill-rule:evenodd;stroke:#29292a;stroke-width:1.00000003pt;stroke-opacity:1"
         transform="matrix(0.8,0,0,0.8,10,0)" />
    </marker>
    <marker
       inkscape:stockid="Arrow1Lend"
       orient="auto"
       refY="0"
       refX="0"
       id="Arrow1Lend-2-0-51-1-4-0-0"
       style="overflow:visible"
       inkscape:isstock="true">
      <path
         inkscape:connector-curvature="0"
         id="path993-6-9-9-0-8-0-0"
         d="M 0,0 5,-5 -12.5,0 5,5 Z"
         style="fill:#29292a;fill-opacity:1;fill-rule:evenodd;stroke:#29292a;stroke-width:1.00000003pt;stroke-opacity:1"
         transform="matrix(-0.8,0,0,-0.8,-10,0)" />
    </marker>
    <marker
       inkscape:stockid="Arrow1Lstart"
       orient="auto"
       refY="0"
       refX="0"
       id="Arrow1Lstart-8-7-7-4-6-2-4-4"
       style="overflow:visible"
       inkscape:isstock="true">
      <path
         inkscape:connector-curvature="0"
         id="path990-9-3-6-3-0-7-0-5"
         d="M 0,0 5,-5 -12.5,0 5,5 Z"
         style="fill:#29292a;fill-opacity:1;fill-rule:evenodd;stroke:#29292a;stroke-width:1.00000003pt;stroke-opacity:1"
         transform="matrix(0.8,0,0,0.8,10,0)" />
    </marker>
    <marker
       inkscape:stockid="Arrow1Lend"
       orient="auto"
       refY="0"
       refX="0"
       id="Arrow1Lend-2-0-51-1-4-0-0-9"
       style="overflow:visible"
       inkscape:isstock="true">
      <path
         inkscape:connector-curvature="0"
         id="path993-6-9-9-0-8-0-0-5"
         d="M 0,0 5,-5 -12.5,0 5,5 Z"
         style="fill:#29292a;fill-opacity:1;fill-rule:evenodd;stroke:#29292a;stroke-width:1.00000003pt;stroke-opacity:1"
         transform="matrix(-0.8,0,0,-0.8,-10,0)" />
    </marker>
    <marker
       inkscape:stockid="Arrow1Lstart"
       orient="auto"
       refY="0"
       refX="0"
       id="Arrow1Lstart-8-7-7-4-6-2-4-4-6"
       style="overflow:visible"
       inkscape:isstock="true">
      <path
         inkscape:connector-curvature="0"
         id="path990-9-3-6-3-0-7-0-5-2"
         d="M 0,0 5,-5 -12.5,0 5,5 Z"
         style="fill:#29292a;fill-opacity:1;fill-rule:evenodd;stroke:#29292a;stroke-width:1.00000003pt;stroke-opacity:1"
         transform="matrix(0.8,0,0,0.8,10,0)" />
    </marker>
    <marker
       inkscape:stockid="Arrow1Lend"
       orient="auto"
       refY="0"
       refX="0"
       id="Arrow1Lend-2-0-51-1-4-0-0-9-3"
       style="overflow:visible"
       inkscape:isstock="true">
      <path
         inkscape:connector-curvature="0"
         id="path993-6-9-9-0-8-0-0-5-2"
         d="M 0,0 5,-5 -12.5,0 5,5 Z"
         style="fill:#29292a;fill-opacity:1;fill-rule:evenodd;stroke:#29292a;stroke-width:1.00000003pt;stroke-opacity:1"
         transform="matrix(-0.8,0,0,-0.8,-10,0)" />
    </marker>
  </defs>
  <sodipodi:namedview
     id="base"
     pagecolor="#ffffff"
     bordercolor="#666666"
     borderopacity="1.0"
     inkscape:pageopacity="0.0"
     inkscape:pageshadow="2"
     inkscape:zoom="1.4"
     inkscape:cx="235.19877"
     inkscape:cy="271.86771"
     inkscape:document-units="mm"
     inkscape:current-layer="layer1"
     showgrid="false"
     units="px"
     inkscape:window-width="1920"
     inkscape:window-height="1057"
     inkscape:window-x="1912"
     inkscape:window-y="-8"
     inkscape:window-maximized="1" />
  <metadata
     id="metadata5">
    <rdf:RDF>
      <cc:Work
         rdf:about="">
        <dc:format>image/svg+xml</dc:format>
        <dc:type
           rdf:resource="http://purl.org/dc/dcmitype/StillImage" />
        <dc:title></dc:title>
      </cc:Work>
    </rdf:RDF>
  </metadata>
  <g
     inkscape:label="Layer 1"
     inkscape:groupmode="layer"
     id="layer1"
     transform="translate(34.797022,-155.06512)">
    <path
       style="fill:none;stroke:#000000;stroke-width:0.26458332px;stroke-linecap:butt;stroke-linejoin:miter;stroke-opacity:1"
       d="M -22.701784,166.39261 69.902382,72.276537 M -22.544475,166.53354 76.551756,79.279287 M -22.397644,166.68535 82.683434,86.739529 M -22.262043,166.84727 88.266031,94.619078 M -22.138366,167.01847 93.270973,102.8776 M -22.027247,167.19808 97.672644,111.47283 M -21.929253,167.38517 101.44851,120.36077 M -21.844886,167.57879 104.57925,129.49593 M -21.774579,167.77795 107.04884,138.83156 M -21.71869,167.98162 108.84463,148.31985 M -21.677507,168.18877 109.95744,157.91226 m -131.60868,10.48607 132.03281,-0.83864 m -132.021593,1.04954 131.754873,8.60352 M -21.643914,168.8204 109.15864,186.82203 M -21.662893,169.03075 107.51784,196.33836 M -21.696862,169.2392 105.20084,205.71301 M -21.745649,169.44469 102.21951,214.89802 M -21.809002,169.64616 98.589108,223.84637 M -21.886598,169.84259 94.328211,232.51224 M -21.978041,170.03297 89.45863,240.8513 M -22.08286,170.21633 84.005291,248.82085 M -22.200521,170.39172 77.996105,256.38011 M -22.330421,170.55825 71.46183,263.49038 m -93.933725,-92.77531 86.907807,99.4002 m -87.060131,-99.2539 79.57853,105.3595"
       id="path19457"
       inkscape:connector-curvature="0"
       inkscape:path-effect="#path-effect19459"
       inkscape:original-d="M -22.701784,166.39261 69.902382,72.276537"
       sodipodi:nodetypes="cc"
       transform="translate(1.5390622,56.170077)" />
    <ellipse
       style="fill:#7c334f;fill-opacity:1;stroke:#6c7671;stroke-width:0.51390511;stroke-miterlimit:4;stroke-dasharray:none;stroke-opacity:1"
       id="path986"
       cx="-24.208971"
       cy="225.23888"
       rx="3.8200798"
       ry="3.9059241" />
    <path
       style="fill:#37abc8;stroke:#3fa4e4;stroke-width:1.66499996;stroke-linecap:butt;stroke-linejoin:miter;stroke-miterlimit:4;stroke-dasharray:9.99, 1.665;stroke-dashoffset:0;stroke-opacity:1"
       d="M -20.138445,224.35885 H 106.43545"
       id="path2448"
       inkscape:connector-curvature="0"
       sodipodi:nodetypes="cc" />
    <rect
       style="fill:#e9eced;fill-opacity:1;stroke:#6c7671;stroke-width:0.80000001;stroke-miterlimit:4;stroke-dasharray:none;stroke-opacity:1"
       id="rect916-7-3-5"
       width="48.002975"
       height="10.772308"
       x="-25.736719"
       y="257.24496" />
    <rect
       style="fill:#e9eced;fill-opacity:1;stroke:#6c7671;stroke-width:0.80000001;stroke-miterlimit:4;stroke-dasharray:none;stroke-opacity:1"
       id="rect916-6"
       width="25.513395"
       height="19.087799"
       x="22.266256"
       y="248.92947" />
    <rect
       style="fill:#e9eced;fill-opacity:1;stroke:#6c7671;stroke-width:0.80000001;stroke-miterlimit:4;stroke-dasharray:none;stroke-opacity:1"
       id="rect920-5"
       width="16.441967"
       height="29.104156"
       x="47.779652"
       y="238.91312" />
    <rect
       style="fill:#e9eced;fill-opacity:1;stroke:#6c7671;stroke-width:0.80000001;stroke-miterlimit:4;stroke-dasharray:none;stroke-opacity:1"
       id="rect920-7-9"
       width="16.441963"
       height="48.758911"
       x="89.735001"
       y="219.25836"
       ry="0" />
    <rect
       style="fill:#e9eced;fill-opacity:1;stroke:#6c7671;stroke-width:0.80000001;stroke-miterlimit:4;stroke-dasharray:none;stroke-opacity:1"
       id="rect916-3-4"
       width="25.51339"
       height="19.087799"
       x="64.221619"
       y="248.92947" />
    <rect
       style="fill:#e9eced;fill-opacity:1;stroke:#6c7671;stroke-width:0.70347661;stroke-miterlimit:4;stroke-dasharray:none;stroke-opacity:1"
       id="rect916-6-5"
       width="84.579964"
       height="14.759613"
       x="22.266256"
       y="-170.39006"
       transform="scale(1,-1)" />
    <rect
       style="fill:#e9eced;fill-opacity:1;stroke:#6c7671;stroke-width:0.70347661;stroke-miterlimit:4;stroke-dasharray:none;stroke-opacity:1"
       id="rect920-7-9-7"
       width="49.850681"
       height="37.702774"
       x="-27.584398"
       y="-193.33322"
       ry="0"
       transform="scale(1,-1)" />
  </g>
</svg>
